<svg height="512" viewBox="0 0 64 64" width="512" xmlns="http://www.w3.org/2000/svg"><g id="flat"><path d="m23.535 56.232a255.339 255.339 0 0 0 32.465-35.232s-4 2-6 0c-3-3 3-12 3-12s-9 10-11 9c-2.53-1.265 1-8 1-8s-21.632 21.508-31.866 28.858a1.994 1.994 0 0 0 -.473 2.763l9.915 14.245a2 2 0 0 0 2.959.366z" fill="#4da6ea"/><path d="m38 28s-5 0-7 7c-1.671 5.849-6 6-6 6a40.008 40.008 0 0 1 3-9c-2 1-4.5.5-7 3a20.006 20.006 0 0 1 -8.121 4.057c-5.443 1.216-9.879 5.243-9.879 10.943a11 11 0 0 0 11 11c4.087 0 7.225-2.513 9.542-5.542.743-.971 3.888-6.491 5.458-8.458 10.588-13.263 6-12 9-19z" fill="#e1462b"/><path d="m21 50a7 7 0 0 1 -14 0 6.88 6.88 0 0 1 1.54-4.37 6.994 6.994 0 0 1 12.46 4.37z" fill="#fcf05a"/><g fill="#2d75bb"><path d="m44.757 5h8.485v2h-8.485z" transform="matrix(.707 -.707 .707 .707 10.109 36.406)"/><path d="m54.379 3.5h4.243v2h-4.243z" transform="matrix(.707 -.707 .707 .707 13.366 41.27)"/><path d="m50.979 11.5h12.042v1.999h-12.042z" transform="matrix(.664 -.747 .747 .664 9.789 46.798)"/><path d="m57.379 15.5h4.243v2h-4.243z" transform="matrix(.707 -.707 .707 .707 5.76 46.906)"/><path d="m25.101 11h19.799v2h-19.799z" transform="matrix(.707 -.707 .707 .707 1.766 28.263)"/><path d="m43.985 31.5h17.029v2h-17.029z" transform="matrix(.646 -.764 .764 .646 -6.212 51.615)"/></g><path d="m21 50a6.961 6.961 0 0 1 -1.27 4.02l-1.62-2.82-4.26 1.12 1.07-5.59-4.26 1.12-2.12-2.22a6.994 6.994 0 0 1 12.46 4.37z" fill="#f9bb4b"/><path d="m20 39h2v2h-2z" fill="#fcf05a"/><path d="m24 44h2v2h-2z" fill="#fcf05a"/><path d="m31.757 22h8.485v2h-8.485z" fill="#2d75bb" transform="matrix(.707 -.707 .707 .707 -5.719 32.192)"/><path d="m38.964 22.5h7.071v2h-7.071z" fill="#2d75bb" transform="matrix(.707 -.707 .707 .707 -4.169 36.935)"/><path d="m39.39 27.501h9.22v1.999h-9.22z" fill="#2d75bb" transform="matrix(.651 -.759 .759 .651 -6.274 43.36)"/><circle cx="23" cy="21" fill="#f9bb4b" r="2"/><circle cx="25" cy="11" fill="#f9bb4b" r="2"/><circle cx="46" cy="50" fill="#f9bb4b" r="2"/></g></svg>